<svg xmlns="http://www.w3.org/2000/svg" viewBox="0 0 750 500"><g id="freepik--background-complete--inject-57"><path d="M668.47,90.52H555.29s11.22-30.65,28.49-30.65S606.46,81,606.46,81s11.65-11.5,21.22-11.5,17.9,15.19,17.9,15.19S659.1,76.56,668.47,90.52Z" style="fill:#ebebeb"></path><path d="M526.28,119.23H473.39s11.82-17.12,21.13-17.12,12.06,11.41,12.06,11.41,6.58-5.32,12.66-4.37S526.28,119.23,526.28,119.23Z" style="fill:#ebebeb"></path><path d="M702.25,165.59h-52.9s11.82-17.12,21.13-17.12,12.07,11.42,12.07,11.42,6.57-5.33,12.66-4.38S702.25,165.59,702.25,165.59Z" style="fill:#ebebeb"></path><path d="M252.16,165.59H199.27s11.82-17.12,21.13-17.12,12.06,11.42,12.06,11.42,6.58-5.33,12.66-4.38S252.16,165.59,252.16,165.59Z" style="fill:#ebebeb"></path><path d="M221.28,77H168.39s11.82-17.13,21.13-17.13,12.06,11.42,12.06,11.42,6.57-5.33,12.66-4.38S221.28,77,221.28,77Z" style="fill:#ebebeb"></path><path d="M150.78,107.31h-103S61.86,75.81,77,73.84,99.27,97.25,99.27,97.25s9.73-9,17.39-9,13.56,11.81,13.56,11.81S145.53,92,150.78,107.31Z" style="fill:#ebebeb"></path><path d="M710.68,252.06S583.09,178.65,489.9,178.65c-91.22,0-214.94,37.08-248.57,45.39-88.32,21.81-202,28-202,28Z" style="fill:#dbdbdb"></path><path d="M39.32,252.06s69.55-49.22,148.12-49.22c54.84,0,133.56,19.82,207.7,31,28.22,4.24,175.17,18.26,175.17,18.26Z" style="fill:#c7c7c7"></path></g><g id="freepik--Floor--inject-57"><polygon points="39.47 252.06 123.35 251.81 207.23 251.73 375 251.56 542.77 251.72 626.65 251.81 710.53 252.06 626.65 252.3 542.77 252.39 375 252.56 207.23 252.39 123.35 252.3 39.47 252.06" style="fill:#263238"></polygon></g><g id="freepik--Trees--inject-57"><path d="M312.52,243.29c-.64.64-8.06.92-10.75.92s-10.12-.28-10.75-.92,8.34-49.93,10.75-49.93S313.15,242.65,312.52,243.29Z" style="fill:#455a64"></path><path d="M312.67,230.73c-1.84.7-8.62,3.46-10.09,4.27v-.93l4.92-2.87a60.11,60.11,0,0,0,5.3-3.15c.08-.06,0-.22-.08-.18a45.12,45.12,0,0,0-5.18,2.87c-1.67,1-3.32,2-5,3q0-3.54,0-7.09a55.14,55.14,0,0,0,7.74-3.93c.08-.05,0-.2-.07-.16a56.25,56.25,0,0,0-7.67,3.78c0-1.23,0-2.46,0-3.69-.07-6.32-.08-12.66-.25-19,1.61-.81,3.27-1.53,4.88-2.35.11,0,0-.23-.08-.19-1.63.64-3.21,1.39-4.81,2.1-.08-3.27-.21-6.53-.41-9.79a.09.09,0,0,0-.17,0c-.22,6.06-.2,12.13-.13,18.19-1.66-1.33-3.44-2.51-5.14-3.8-.06-.05-.13.06-.06.11,1.77,1.35,3.43,2.85,5.21,4.19,0,.35,0,.69,0,1-1.81-.83-3.64-1.59-5.47-2.38-.14-.06-.27.15-.12.22,1.86.89,3.71,1.8,5.6,2.64,0,3,.09,6,.13,9,.07,5.25.19,10.49.3,15.73-3.42-1.72-6.86-3.41-10.32-5a.11.11,0,1,0-.11.19A106.1,106.1,0,0,0,302,238.79c.09,4.35.18,8.71.23,13.07a.21.21,0,0,0,.42,0c-.07-5.56-.07-11.12-.09-16.67A102.43,102.43,0,0,0,312.79,231C313,231,312.84,230.66,312.67,230.73Z" style="fill:#37474f"></path><path d="M79.58,243.29c-.64.64-8,.92-10.75.92s-10.11-.28-10.75-.92,8.35-49.93,10.75-49.93S80.22,242.65,79.58,243.29Z" style="fill:#455a64"></path><path d="M79.73,230.73c-1.83.7-8.62,3.46-10.09,4.27v-.93l4.92-2.87a58.69,58.69,0,0,0,5.3-3.15c.08-.06,0-.22-.07-.18a44.43,44.43,0,0,0-5.19,2.87q-2.5,1.47-5,3l0-7.09a55.57,55.57,0,0,0,7.73-3.93c.09-.05,0-.2-.07-.16a55.57,55.57,0,0,0-7.66,3.78l0-3.69c-.07-6.32-.08-12.66-.24-19,1.61-.81,3.27-1.53,4.87-2.35a.1.1,0,0,0-.08-.19c-1.63.64-3.2,1.39-4.8,2.1-.09-3.27-.22-6.53-.41-9.79a.09.09,0,0,0-.17,0c-.23,6.06-.21,12.13-.13,18.19-1.67-1.33-3.45-2.51-5.15-3.8-.06-.05-.12.06-.06.11,1.77,1.35,3.43,2.85,5.21,4.19,0,.35,0,.69,0,1-1.81-.83-3.65-1.59-5.47-2.38-.15-.06-.27.15-.13.22,1.86.89,3.72,1.8,5.6,2.64q.08,4.52.14,9c.06,5.25.18,10.49.29,15.73-3.41-1.72-6.85-3.41-10.31-5-.13-.07-.25.12-.12.19a107.22,107.22,0,0,0,10.44,5.25c.09,4.35.18,8.71.24,13.07a.21.21,0,0,0,.41,0c-.06-5.56-.07-11.12-.09-16.67A103.6,103.6,0,0,0,79.86,231C80,231,79.91,230.66,79.73,230.73Z" style="fill:#37474f"></path><path d="M691.59,243.29c-.63.64-8.05.92-10.75.92s-10.11-.28-10.75-.92,8.35-49.93,10.75-49.93S692.23,242.65,691.59,243.29Z" style="fill:#455a64"></path><path d="M691.74,230.73c-1.83.7-8.62,3.46-10.08,4.27,0-.31,0-.62,0-.93l4.93-2.87a58.52,58.52,0,0,0,5.29-3.15c.08-.06,0-.22-.07-.18a45.12,45.12,0,0,0-5.18,2.87c-1.67,1-3.32,2-5,3q0-3.54,0-7.09a55.69,55.69,0,0,0,7.74-3.93c.08-.05,0-.2-.07-.16a55.68,55.68,0,0,0-7.67,3.78c0-1.23,0-2.46,0-3.69-.06-6.32-.08-12.66-.24-19,1.61-.81,3.27-1.53,4.88-2.35.1,0,0-.23-.08-.19-1.64.64-3.21,1.39-4.81,2.1-.09-3.27-.21-6.53-.41-9.79a.09.09,0,0,0-.17,0c-.22,6.06-.21,12.13-.13,18.19-1.67-1.33-3.44-2.51-5.14-3.8-.07-.05-.13.06-.07.11,1.78,1.35,3.44,2.85,5.22,4.19,0,.35,0,.69,0,1-1.81-.83-3.64-1.59-5.47-2.38-.14-.06-.27.15-.12.22,1.86.89,3.71,1.8,5.6,2.64,0,3,.09,6,.13,9,.07,5.25.18,10.49.29,15.73-3.41-1.72-6.85-3.41-10.31-5a.11.11,0,1,0-.11.19,107.06,107.06,0,0,0,10.43,5.25c.1,4.35.19,8.71.24,13.07,0,.26.42.26.41,0-.06-5.56-.07-11.12-.08-16.67A102.43,102.43,0,0,0,691.87,231C692,231,691.92,230.66,691.74,230.73Z" style="fill:#37474f"></path><path d="M135.07,244.53c-.54.55-6.91.79-9.22.79s-8.68-.24-9.23-.79,7.17-42.84,9.23-42.84S135.62,244,135.07,244.53Z" style="fill:#455a64"></path><path d="M135.2,233.76c-1.57.6-7.39,3-8.65,3.66,0-.27,0-.53,0-.8l4.23-2.46a51.69,51.69,0,0,0,4.54-2.7c.07-.05,0-.2-.06-.16a38.62,38.62,0,0,0-4.45,2.46c-1.43.84-2.85,1.71-4.26,2.58q0-3,0-6.08a48.18,48.18,0,0,0,6.64-3.38c.07,0,0-.17-.06-.14a49,49,0,0,0-6.58,3.24l0-3.16c-.06-5.43-.07-10.86-.2-16.29,1.38-.69,2.8-1.31,4.18-2a.09.09,0,0,0-.07-.17c-1.4.55-2.75,1.2-4.13,1.8-.07-2.8-.18-5.6-.35-8.39a.07.07,0,1,0-.14,0c-.2,5.2-.18,10.4-.11,15.61-1.43-1.15-3-2.16-4.42-3.27,0,0-.11.06,0,.1,1.52,1.16,2.94,2.44,4.47,3.6,0,.29,0,.58,0,.88-1.55-.71-3.12-1.37-4.69-2-.12,0-.23.12-.11.18,1.6.77,3.19,1.55,4.81,2.27q.06,3.87.11,7.73c.06,4.5.16,9,.26,13.5-2.93-1.48-5.89-2.92-8.85-4.32-.12-.05-.22.11-.1.17a92.41,92.41,0,0,0,9,4.5c.08,3.74.16,7.48.21,11.22a.18.18,0,0,0,.35,0c-.05-4.77-.06-9.54-.07-14.31a88.2,88.2,0,0,0,8.76-3.56C135.45,234,135.35,233.7,135.2,233.76Z" style="fill:#37474f"></path><path d="M410.93,245.72c.46.46,5.81.67,7.76.67s7.31-.21,7.77-.67-6-36.08-7.77-36.08S410.47,245.26,410.93,245.72Z" style="fill:#37474f"></path><path d="M410.82,236.65c1.32.5,6.23,2.5,7.29,3.08v-.67c-1.18-.7-2.37-1.38-3.56-2.08a43.32,43.32,0,0,1-3.83-2.27c-.05,0,0-.16.06-.13a31.71,31.71,0,0,1,3.74,2.07c1.21.71,2.4,1.44,3.59,2.17,0-1.71,0-3.41,0-5.12a41.32,41.32,0,0,1-5.59-2.84c-.06,0,0-.15,0-.12a40.68,40.68,0,0,1,5.54,2.73c0-.89,0-1.78,0-2.66.05-4.57.06-9.15.18-13.72-1.17-.59-2.36-1.11-3.53-1.7-.07,0,0-.17.06-.14,1.18.46,2.32,1,3.48,1.52.06-2.36.15-4.72.29-7.07a.06.06,0,1,1,.12,0c.17,4.38.15,8.76.1,13.14,1.2-1,2.49-1.81,3.71-2.74.05,0,.1,0,.05.08-1.28,1-2.48,2-3.77,3,0,.24,0,.49,0,.74,1.31-.6,2.64-1.15,4-1.72.1,0,.19.1.09.15-1.35.65-2.69,1.31-4.05,1.92,0,2.17-.07,4.34-.1,6.51-.05,3.79-.13,7.58-.21,11.37,2.47-1.25,5-2.47,7.45-3.64.1,0,.18.09.09.14a78.28,78.28,0,0,1-7.55,3.79c-.06,3.15-.13,6.3-.17,9.44a.15.15,0,0,1-.3,0c0-4,.06-8,.07-12a74.52,74.52,0,0,1-7.38-3A.11.11,0,0,1,410.82,236.65Z" style="fill:#455a64"></path><path d="M255.68,244c-.59.59-7.44.85-9.92.85s-9.34-.26-9.93-.85,7.71-46.08,9.93-46.08S256.26,243.38,255.68,244Z" style="fill:#37474f"></path><path d="M255.81,232.38c-1.69.64-7.95,3.19-9.3,3.94,0-.29,0-.57,0-.86l4.54-2.65a52.07,52.07,0,0,0,4.89-2.91c.08-.05,0-.2-.07-.16a42,42,0,0,0-4.78,2.64c-1.54.91-3.06,1.84-4.58,2.77,0-2.18,0-4.36,0-6.54a50.94,50.94,0,0,0,7.14-3.63c.08,0,0-.19-.06-.15a54.06,54.06,0,0,0-7.08,3.49c0-1.13,0-2.27,0-3.4-.07-5.84-.08-11.68-.23-17.52,1.49-.75,3-1.41,4.5-2.16.1-.05,0-.22-.07-.18-1.51.59-3,1.28-4.44,1.93-.08-3-.19-6-.38-9,0-.09-.15-.1-.15,0-.21,5.6-.19,11.19-.12,16.79-1.54-1.23-3.18-2.31-4.75-3.51-.06,0-.12.06-.06.11,1.64,1.24,3.17,2.62,4.81,3.86,0,.32,0,.64,0,.95-1.67-.76-3.37-1.47-5.05-2.19-.13-.06-.25.13-.12.19,1.72.83,3.43,1.67,5.17,2.45,0,2.77.09,5.54.12,8.31q.11,7.26.28,14.52c-3.15-1.59-6.33-3.15-9.52-4.65-.12-.06-.23.11-.11.18a97.36,97.36,0,0,0,9.63,4.84q.14,6,.22,12.06c0,.25.39.25.38,0-.05-5.12-.06-10.25-.07-15.38a95.69,95.69,0,0,0,9.42-3.83C256.08,232.58,256,232.31,255.81,232.38Z" style="fill:#455a64"></path><path d="M558.64,244c-.58.59-7.43.85-9.92.85s-9.33-.26-9.92-.85,7.7-46.08,9.92-46.08S559.23,243.38,558.64,244Z" style="fill:#37474f"></path><path d="M558.78,232.38c-1.69.64-7.95,3.19-9.31,3.94v-.86l4.54-2.65a52.07,52.07,0,0,0,4.89-2.91c.08-.05,0-.2-.07-.16a42,42,0,0,0-4.78,2.64c-1.54.91-3.06,1.84-4.58,2.77,0-2.18,0-4.36,0-6.54a51.49,51.49,0,0,0,7.14-3.63c.08,0,0-.19-.06-.15a53.45,53.45,0,0,0-7.08,3.49c0-1.13,0-2.27,0-3.4-.06-5.84-.07-11.68-.22-17.52,1.49-.75,3-1.41,4.5-2.16.1-.05,0-.22-.07-.18-1.51.59-3,1.28-4.44,1.93-.08-3-.19-6-.38-9,0-.09-.15-.1-.15,0-.21,5.6-.19,11.19-.12,16.79-1.54-1.23-3.18-2.31-4.75-3.51-.06,0-.12.06-.06.11,1.64,1.24,3.17,2.62,4.81,3.86,0,.32,0,.64,0,.95-1.66-.76-3.36-1.47-5-2.19-.14-.06-.25.13-.12.19,1.72.83,3.43,1.67,5.17,2.45,0,2.77.09,5.54.12,8.31q.11,7.26.28,14.52c-3.15-1.59-6.33-3.15-9.52-4.65-.12-.06-.23.11-.11.18a97.36,97.36,0,0,0,9.63,4.84q.13,6,.22,12.06c0,.25.39.25.38,0,0-5.12-.06-10.25-.08-15.38a94.88,94.88,0,0,0,9.43-3.83C559.05,232.58,558.94,232.31,558.78,232.38Z" style="fill:#455a64"></path><path d="M223.72,246.4c.41.41,5.19.6,6.93.6s6.52-.19,6.93-.6-5.38-32.2-6.93-32.2S223.31,246,223.72,246.4Z" style="fill:#455a64"></path><path d="M223.62,238.3c1.18.45,5.56,2.24,6.51,2.76v-.6L227,238.61c-1.13-.67-2.35-1.26-3.41-2a.06.06,0,0,1,.05-.11,29.46,29.46,0,0,1,3.34,1.85c1.07.63,2.14,1.28,3.2,1.93,0-1.52,0-3,0-4.57a36.5,36.5,0,0,1-5-2.53s0-.14,0-.11a36.66,36.66,0,0,1,5,2.44c0-.79,0-1.59,0-2.38,0-4.08.05-8.16.15-12.24-1-.53-2.1-1-3.14-1.51-.07,0,0-.16,0-.13,1.05.41,2.07.9,3.1,1.35.06-2.1.14-4.21.27-6.31a.05.05,0,1,1,.1,0c.15,3.91.14,7.82.09,11.73,1.07-.85,2.22-1.61,3.31-2.45a0,0,0,0,1,.05.07c-1.15.88-2.22,1.84-3.37,2.71V227c1.16-.53,2.35-1,3.52-1.53.1,0,.18.09.08.13-1.2.58-2.39,1.17-3.61,1.71,0,1.94-.06,3.88-.08,5.81-.05,3.38-.12,6.77-.19,10.15q3.3-1.68,6.65-3.25c.08,0,.16.08.07.13a71.69,71.69,0,0,1-6.73,3.38c-.06,2.81-.12,5.62-.15,8.43a.14.14,0,0,1-.27,0c0-3.58.05-7.17.06-10.75a66.79,66.79,0,0,1-6.59-2.68C223.43,238.44,223.51,238.26,223.62,238.3Z" style="fill:#37474f"></path><path d="M520.1,246.4c.41.41,5.2.6,6.94.6s6.52-.19,6.93-.6-5.38-32.2-6.93-32.2S519.69,246,520.1,246.4Z" style="fill:#455a64"></path><path d="M520,238.3c1.18.45,5.56,2.24,6.5,2.76,0-.2,0-.4,0-.6l-3.18-1.85a39,39,0,0,1-3.42-2s0-.14.05-.11a28.75,28.75,0,0,1,3.35,1.85c1.07.63,2.14,1.28,3.2,1.93,0-1.52,0-3,0-4.57a36.5,36.5,0,0,1-5-2.53c-.06,0,0-.14,0-.11a36.66,36.66,0,0,1,4.95,2.44c0-.79,0-1.59,0-2.38.05-4.08.06-8.16.16-12.24-1-.53-2.11-1-3.14-1.51-.07,0,0-.16,0-.13,1,.41,2.06.9,3.1,1.35,0-2.1.13-4.21.26-6.31,0-.07.11-.07.11,0,.15,3.91.13,7.82.09,11.73,1.07-.85,2.22-1.61,3.31-2.45,0,0,.09,0,0,.07-1.14.88-2.21,1.84-3.36,2.71,0,.22,0,.44,0,.66,1.17-.53,2.35-1,3.53-1.53.09,0,.18.09.08.13-1.2.58-2.4,1.17-3.61,1.71l-.09,5.81c0,3.38-.12,6.77-.19,10.15q3.3-1.68,6.65-3.25c.09,0,.16.08.08.13a72.93,72.93,0,0,1-6.73,3.38c-.06,2.81-.12,5.62-.16,8.43a.13.13,0,0,1-.26,0c0-3.58,0-7.17,0-10.75a67.62,67.62,0,0,1-6.58-2.68A.11.11,0,0,1,520,238.3Z" style="fill:#37474f"></path></g><g id="freepik--Tent--inject-57"><rect x="308.5" y="183.6" width="2" height="274.31" transform="translate(-51.71 581.91) rotate(-81.89)" style="fill:#263238"></rect><rect x="488.76" y="172.46" width="2" height="225.65" transform="translate(141.29 732.3) rotate(-82.28)" style="fill:#263238"></rect><rect x="352.58" y="210.08" width="165.34" height="2" transform="translate(3.73 429.69) rotate(-52.74)" style="fill:#263238"></rect><rect x="529.76" y="125.84" width="2" height="205.59" transform="translate(-33.46 353.66) rotate(-35.8)" style="fill:#263238"></rect><path d="M299.66,160.37S341,297.8,397.73,338.47L580.38,297.6S524.66,246,489.9,160.37C489.9,160.37,436.43,186.61,299.66,160.37Z" style="fill:#A2A2A2"></path><path d="M299.66,160.37S341,297.8,397.73,338.47L580.38,297.6S524.66,246,489.9,160.37C489.9,160.37,436.43,186.61,299.66,160.37Z" style="opacity:0.1"></path><path d="M397.73,338.47c-27.88-9.52-207-31.49-207-31.49,64.61-30.5,108.89-146.61,108.89-146.61a0,0,0,0,0,0,0C300.31,162.52,341.44,298.11,397.73,338.47Z" style="fill:#A2A2A2"></path><path d="M397.73,338.47c-27.88-9.52-207-31.49-207-31.49,64.61-30.5,108.89-146.61,108.89-146.61a0,0,0,0,0,0,0C300.31,162.52,341.44,298.11,397.73,338.47Z" style="opacity:0.1"></path><path d="M397.73,338.47c-22.91-7.82-148-24.06-191.78-29.59-9.5-1.2-15.18-1.9-15.18-1.9,64.61-30.5,108.89-146.61,108.89-146.61a0,0,0,0,0,0,0c.1.35,1.3,4.31,3.49,10.84C314.23,204.5,350.69,304.73,397.73,338.47Z" style="opacity:0.1"></path><path d="M557.74,292.17,402,319.78c-38.18-41.76-70.4-128.43-79.84-155.44,82.43,13.3,130.71,6.49,152.88.9C501.3,233,557.74,292.17,557.74,292.17Z" style="opacity:0.1"></path><path d="M417.41,257.46S402.65,234.17,400,217.12c0,0,39.36-.33,56.41-5.58,0,0,12.46,26.9,18.7,34.44C475.14,246,454.14,255.49,417.41,257.46Z" style="fill:#ebebeb"></path><path d="M303.17,171.24c-7.87,26.59-39.26,100-97.22,137.64-9.5-1.2-15.18-1.9-15.18-1.9,64.61-30.5,108.89-146.61,108.89-146.61a0,0,0,0,0,0,0C299.78,160.75,301,164.71,303.17,171.24Z" style="fill:#A2A2A2"></path><path d="M303.17,171.24c-7.87,26.59-39.26,100-97.22,137.64-9.5-1.2-15.18-1.9-15.18-1.9,64.61-30.5,108.89-146.61,108.89-146.61a0,0,0,0,0,0,0C299.78,160.75,301,164.71,303.17,171.24Z" style="opacity:0.1"></path><path d="M306.2,322.31c-8.06-1.15-16.18-2.29-24.2-3.4,19-44.12,21.17-147.67,21.17-147.67C309.66,240.33,308.2,292.74,306.2,322.31Z" style="opacity:0.4"></path><rect x="140.52" y="223.17" width="216.28" height="2" transform="translate(-80.28 286.45) rotate(-52.76)" style="fill:#263238"></rect><rect x="358.62" y="120.31" width="2" height="253.3" transform="translate(-75.69 218.28) rotate(-30.71)" style="fill:#263238"></rect></g><g id="freepik--Plants--inject-57"><path d="M76.53,265.93h41.7s-.09-6.21-4.19-7.86a5.6,5.6,0,0,0-6.54,1.57s-1.67-11.41-9.31-11.41-11.3,9.84-11.3,9.84a5.86,5.86,0,0,0-6-2.42C76.7,256.21,76.53,265.93,76.53,265.93Z" style="fill:#37474f"></path><path d="M57.3,265.93H87.67s-1-4.28-3-4.59a3,3,0,0,0-3,1.68s.09-6-3.67-7-6.91,4.25-6.91,4.25-2.36-3-5.58-2.81-4,5.16-4,5.16S58.59,260.92,57.3,265.93Z" style="fill:#455a64"></path><path d="M388.25,354.38h64.18s-.15-9.56-6.46-12.09a8.6,8.6,0,0,0-10.06,2.41s-2.57-17.56-14.33-17.56-17.38,15.15-17.38,15.15-2.64-4.58-9.16-3.73S388.25,354.38,388.25,354.38Z" style="fill:#455a64"></path><path d="M419.71,357.87h67.18s-2.21-9.47-6.66-10.14-6.53,3.72-6.53,3.72.2-13.21-8.12-15.46-15.3,9.43-15.3,9.43-5.21-6.66-12.32-6.23-8.91,11.42-8.91,11.42S422.57,346.79,419.71,357.87Z" style="fill:#37474f"></path><path d="M692.7,308.13H647s.1-6.81,4.6-8.62a6.13,6.13,0,0,1,7.17,1.72s1.83-12.52,10.21-12.52,12.4,10.8,12.4,10.8a6.41,6.41,0,0,1,6.53-2.65C692.52,297.47,692.7,308.13,692.7,308.13Z" style="fill:#455a64"></path><path d="M674.05,317.84s-2.48-11.55-7.42-13.33-8,3.4-8,3.4-1.17-11-8.18-14.34S638.23,297,638.23,297s-5.38-14-15-14-14.45,20.49-14.45,20.49-5.67-6.11-11.49-2.66-5.81,17-5.81,17Z" style="fill:#37474f"></path></g></svg>