<svg xmlns="http://www.w3.org/2000/svg" viewBox="0 0 500 500"><g id="freepik--background-complete--inject-149"><rect x="416.78" y="398.49" width="33.12" height="0.25" style="fill:#ebebeb"></rect><rect x="322.53" y="401.21" width="8.69" height="0.25" style="fill:#ebebeb"></rect><rect x="396.59" y="389.21" width="19.19" height="0.25" style="fill:#ebebeb"></rect><rect x="52.46" y="390.89" width="43.19" height="0.25" style="fill:#ebebeb"></rect><rect x="104.56" y="390.89" width="6.33" height="0.25" style="fill:#ebebeb"></rect><rect x="131.47" y="395.11" width="93.68" height="0.25" style="fill:#ebebeb"></rect><rect y="382.4" width="500" height="0.25" style="fill:#ebebeb"></rect><path d="M237,337.8H43.91a5.71,5.71,0,0,1-5.7-5.71V60.66A5.71,5.71,0,0,1,43.91,55H237a5.71,5.71,0,0,1,5.71,5.71V332.09A5.71,5.71,0,0,1,237,337.8ZM43.91,55.2a5.46,5.46,0,0,0-5.45,5.46V332.09a5.46,5.46,0,0,0,5.45,5.46H237a5.47,5.47,0,0,0,5.46-5.46V60.66A5.47,5.47,0,0,0,237,55.2Z" style="fill:#ebebeb"></path><path d="M453.31,337.8H260.21a5.72,5.72,0,0,1-5.71-5.71V60.66A5.72,5.72,0,0,1,260.21,55h193.1A5.71,5.71,0,0,1,459,60.66V332.09A5.71,5.71,0,0,1,453.31,337.8ZM260.21,55.2a5.47,5.47,0,0,0-5.46,5.46V332.09a5.47,5.47,0,0,0,5.46,5.46h193.1a5.47,5.47,0,0,0,5.46-5.46V60.66a5.47,5.47,0,0,0-5.46-5.46Z" style="fill:#ebebeb"></path><rect x="38.46" y="234.71" width="105.86" height="147.94" style="fill:#f5f5f5"></rect><rect x="45.31" y="169.37" width="68.05" height="54.05" style="fill:#ebebeb"></rect><rect x="71.28" y="191.1" width="16.41" height="16.41" style="fill:#fafafa"></rect><rect x="52.46" y="223.42" width="74.62" height="11.29" style="fill:#e6e6e6"></rect><rect x="71.28" y="207.51" width="16.12" height="16.12" style="fill:#e0e0e0"></rect><rect x="100.47" y="156.74" width="7.89" height="32.9" style="fill:#f5f5f5"></rect><polygon points="133.01 164.41 76.7 163.91 76.7 142.91 133.01 143.41 133.01 164.41" style="fill:#f5f5f5"></polygon><polygon points="129.6 160.44 80.54 160.44 80.54 145.25 129.6 145.77 129.6 160.44" style="fill:#e0e0e0"></polygon><rect x="282.02" y="353.29" width="43.03" height="19.28" style="fill:#fafafa"></rect><rect x="283.71" y="355.99" width="39.21" height="9.64" style="fill:#e6e6e6"></rect><rect x="317.58" y="353.29" width="43.03" height="19.28" style="fill:#fafafa"></rect><rect x="319.27" y="355.99" width="39.21" height="9.64" style="fill:#e6e6e6"></rect><rect x="353.14" y="353.29" width="43.03" height="19.28" style="fill:#fafafa"></rect><rect x="354.82" y="355.99" width="39.21" height="9.64" style="fill:#e6e6e6"></rect><rect x="388.69" y="353.29" width="43.03" height="19.28" style="fill:#fafafa"></rect><rect x="390.38" y="355.99" width="39.21" height="9.64" style="fill:#e6e6e6"></rect><rect x="264.96" y="94.71" width="181.85" height="287.2" style="fill:#fafafa"></rect><rect x="271.95" y="102.36" width="167.29" height="61.55" style="fill:#e0e0e0"></rect><rect x="271.95" y="172.01" width="167.29" height="61.55" style="fill:#e0e0e0"></rect><rect x="271.95" y="241.66" width="167.29" height="61.55" style="fill:#e0e0e0"></rect><rect x="271.95" y="311.31" width="167.29" height="61.55" style="fill:#e0e0e0"></rect><polygon points="435.43 303.21 276.7 303.21 290.48 248.43 421.65 248.43 435.43 303.21" style="fill:#e6e6e6"></polygon><polygon points="435.43 372.22 276.7 372.22 290.48 317.44 421.65 317.44 435.43 372.22" style="fill:#e6e6e6"></polygon><polygon points="435.43 233.39 276.7 233.39 290.48 178.62 421.65 178.62 435.43 233.39" style="fill:#e6e6e6"></polygon><polygon points="435.43 163.57 276.7 163.57 290.48 108.8 421.65 108.8 435.43 163.57" style="fill:#e6e6e6"></polygon><rect x="290.01" y="140.38" width="13.31" height="24.22" rx="3.03" style="fill:#f0f0f0"></rect><rect x="291.31" y="139.07" width="10.69" height="1.31" style="fill:#fafafa"></rect><rect x="297.71" y="140.38" width="2.61" height="24.12" style="fill:#fafafa"></rect><rect x="305.78" y="140.38" width="13.31" height="24.22" rx="3.03" style="fill:#f0f0f0"></rect><rect x="307.08" y="139.07" width="10.69" height="1.31" style="fill:#fafafa"></rect><rect x="313.48" y="140.38" width="2.61" height="24.12" style="fill:#fafafa"></rect><rect x="321.55" y="140.38" width="13.31" height="24.22" rx="3.03" style="fill:#f0f0f0"></rect><rect x="322.86" y="139.07" width="10.69" height="1.31" style="fill:#fafafa"></rect><rect x="329.25" y="140.38" width="2.61" height="24.12" style="fill:#fafafa"></rect><rect x="337.32" y="140.38" width="13.31" height="24.22" rx="3.03" style="fill:#f0f0f0"></rect><rect x="338.63" y="139.07" width="10.69" height="1.31" style="fill:#fafafa"></rect><rect x="345.03" y="140.38" width="2.61" height="24.12" style="fill:#fafafa"></rect><rect x="353.09" y="140.38" width="13.31" height="24.22" rx="3.03" style="fill:#f0f0f0"></rect><rect x="354.4" y="139.07" width="10.69" height="1.31" style="fill:#fafafa"></rect><rect x="360.8" y="140.38" width="2.61" height="24.12" style="fill:#fafafa"></rect><rect x="368.87" y="140.38" width="13.31" height="24.22" rx="3.03" style="fill:#f0f0f0"></rect><rect x="370.17" y="139.07" width="10.69" height="1.31" style="fill:#fafafa"></rect><rect x="376.57" y="140.38" width="2.61" height="24.12" style="fill:#fafafa"></rect><rect x="384.64" y="140.38" width="13.31" height="24.22" rx="3.03" style="fill:#f0f0f0"></rect><rect x="385.95" y="139.07" width="10.69" height="1.31" style="fill:#fafafa"></rect><rect x="392.34" y="140.38" width="2.61" height="24.12" style="fill:#fafafa"></rect><rect x="400.41" y="140.38" width="13.31" height="24.22" rx="3.03" style="fill:#f0f0f0"></rect><rect x="401.72" y="139.07" width="10.69" height="1.31" style="fill:#fafafa"></rect><rect x="408.11" y="140.38" width="2.61" height="24.12" style="fill:#fafafa"></rect><rect x="416.18" y="140.38" width="13.31" height="24.22" rx="3.03" style="fill:#f0f0f0"></rect><rect x="417.49" y="139.07" width="10.69" height="1.31" style="fill:#fafafa"></rect><rect x="423.89" y="140.38" width="2.61" height="24.12" style="fill:#fafafa"></rect><path d="M303.11,210.24v20.5a2.35,2.35,0,0,1-2.35,2.35h-7.87a2.35,2.35,0,0,1-2.35-2.35v-20.5a6.27,6.27,0,0,1,4.37-6v-1.41h3.69v1.37a6.1,6.1,0,0,1,2.67,1.58A6.24,6.24,0,0,1,303.11,210.24Z" style="fill:#f0f0f0"></path><rect x="294.36" y="199.82" width="4.77" height="3.03" style="fill:#fafafa"></rect><rect x="291.48" y="210.24" width="10.69" height="12.58" style="fill:#e0e0e0"></rect><path d="M318.86,210.24v20.5a2.35,2.35,0,0,1-2.35,2.35h-7.87a2.35,2.35,0,0,1-2.35-2.35v-20.5a6.27,6.27,0,0,1,4.37-6v-1.41h3.69v1.37A6,6,0,0,1,317,205.8,6.24,6.24,0,0,1,318.86,210.24Z" style="fill:#f0f0f0"></path><rect x="310.12" y="199.82" width="4.77" height="3.03" style="fill:#fafafa"></rect><rect x="307.23" y="210.24" width="10.69" height="12.58" style="fill:#e0e0e0"></rect><path d="M334.61,210.24v20.5a2.35,2.35,0,0,1-2.35,2.35h-7.87a2.35,2.35,0,0,1-2.35-2.35v-20.5a6.27,6.27,0,0,1,4.37-6v-1.41h3.69v1.37a6,6,0,0,1,2.67,1.58A6.24,6.24,0,0,1,334.61,210.24Z" style="fill:#f0f0f0"></path><rect x="325.87" y="199.82" width="4.77" height="3.03" style="fill:#fafafa"></rect><rect x="322.98" y="210.24" width="10.69" height="12.58" style="fill:#e0e0e0"></rect><path d="M350.37,210.24v20.5a2.35,2.35,0,0,1-2.35,2.35h-7.88a2.35,2.35,0,0,1-2.35-2.35v-20.5a6.27,6.27,0,0,1,4.37-6v-1.41h3.7v1.37a6.15,6.15,0,0,1,2.67,1.58A6.28,6.28,0,0,1,350.37,210.24Z" style="fill:#f0f0f0"></path><rect x="341.62" y="199.82" width="4.77" height="3.03" style="fill:#fafafa"></rect><rect x="338.73" y="210.24" width="10.69" height="12.58" style="fill:#e0e0e0"></rect><path d="M366.12,210.24v20.5a2.35,2.35,0,0,1-2.35,2.35h-7.88a2.35,2.35,0,0,1-2.35-2.35v-20.5a6.27,6.27,0,0,1,4.37-6v-1.41h3.7v1.37a6.15,6.15,0,0,1,2.67,1.58A6.24,6.24,0,0,1,366.12,210.24Z" style="fill:#f0f0f0"></path><rect x="357.37" y="199.82" width="4.77" height="3.03" style="fill:#fafafa"></rect><rect x="354.48" y="210.24" width="10.69" height="12.58" style="fill:#e0e0e0"></rect><path d="M381.87,210.24v20.5a2.35,2.35,0,0,1-2.35,2.35h-7.88a2.35,2.35,0,0,1-2.35-2.35v-20.5a6.28,6.28,0,0,1,4.38-6v-1.41h3.69v1.37A6.15,6.15,0,0,1,380,205.8,6.24,6.24,0,0,1,381.87,210.24Z" style="fill:#f0f0f0"></path><rect x="373.12" y="199.82" width="4.77" height="3.03" style="fill:#fafafa"></rect><rect x="370.24" y="210.24" width="10.69" height="12.58" style="fill:#e0e0e0"></rect><path d="M397.62,210.24v20.5a2.35,2.35,0,0,1-2.35,2.35H387.4a2.35,2.35,0,0,1-2.35-2.35v-20.5a6.27,6.27,0,0,1,4.37-6v-1.41h3.69v1.37a6.1,6.1,0,0,1,2.67,1.58A6.24,6.24,0,0,1,397.62,210.24Z" style="fill:#f0f0f0"></path><rect x="388.87" y="199.82" width="4.77" height="3.03" style="fill:#fafafa"></rect><rect x="385.99" y="210.24" width="10.69" height="12.58" style="fill:#e0e0e0"></rect><path d="M413.37,210.24v20.5a2.35,2.35,0,0,1-2.35,2.35h-7.87a2.35,2.35,0,0,1-2.35-2.35v-20.5a6.27,6.27,0,0,1,4.37-6v-1.41h3.69v1.37a6,6,0,0,1,2.67,1.58A6.24,6.24,0,0,1,413.37,210.24Z" style="fill:#f0f0f0"></path><rect x="404.63" y="199.82" width="4.77" height="3.03" style="fill:#fafafa"></rect><rect x="401.74" y="210.24" width="10.69" height="12.58" style="fill:#e0e0e0"></rect><path d="M429.12,210.24v20.5a2.35,2.35,0,0,1-2.35,2.35H418.9a2.35,2.35,0,0,1-2.35-2.35v-20.5a6.27,6.27,0,0,1,4.37-6v-1.41h3.69v1.37a6,6,0,0,1,2.67,1.58A6.24,6.24,0,0,1,429.12,210.24Z" style="fill:#f0f0f0"></path><rect x="420.38" y="199.82" width="4.77" height="3.03" style="fill:#fafafa"></rect><rect x="417.49" y="210.24" width="10.69" height="12.58" style="fill:#e0e0e0"></rect><path d="M316.24,303.21h0a84.67,84.67,0,0,0-27.23-.9l-7,.9,1.15-7.29a85.28,85.28,0,0,0,0-26.3L282,262.33l3.14.51a85.08,85.08,0,0,0,25.14.31l5.94-.82L315,272.49a85.19,85.19,0,0,0,0,20.56Z" style="fill:#fafafa"></path><ellipse cx="299.13" cy="284.26" rx="10.69" ry="8.44" style="fill:#e6e6e6"></ellipse><path d="M335.49,303.21h0a84.72,84.72,0,0,0-27.24-.9l-7,.9,1.14-7.29a84.66,84.66,0,0,0,0-26.3l-1.14-7.29,3.14.51a85,85,0,0,0,25.13.31l5.95-.82-1.24,10.16a84.19,84.19,0,0,0,0,20.56Z" style="fill:#fafafa"></path><ellipse cx="318.38" cy="284.26" rx="10.69" ry="8.44" style="fill:#e6e6e6"></ellipse><path d="M354.74,303.21h0a84.73,84.73,0,0,0-27.24-.9l-7,.9,1.14-7.29a84.66,84.66,0,0,0,0-26.3l-1.14-7.29,3.14.51a85,85,0,0,0,25.13.31l5.95-.82-1.24,10.16a84.19,84.19,0,0,0,0,20.56Z" style="fill:#fafafa"></path><ellipse cx="337.63" cy="284.26" rx="10.69" ry="8.44" style="fill:#e6e6e6"></ellipse><path d="M374,303.21h0a84.66,84.66,0,0,0-27.23-.9l-7,.9,1.14-7.29a84.66,84.66,0,0,0,0-26.3l-1.14-7.29,3.13.51a85.08,85.08,0,0,0,25.14.31l5.94-.82-1.24,10.16a85.19,85.19,0,0,0,0,20.56Z" style="fill:#fafafa"></path><ellipse cx="356.87" cy="284.26" rx="10.69" ry="8.44" style="fill:#e6e6e6"></ellipse><path d="M393.23,303.21h0a84.67,84.67,0,0,0-27.23-.9l-7,.9,1.15-7.29a85.28,85.28,0,0,0,0-26.3L359,262.33l3.14.51a85.08,85.08,0,0,0,25.14.31l5.94-.82L392,272.49a85.19,85.19,0,0,0,0,20.56Z" style="fill:#fafafa"></path><ellipse cx="376.12" cy="284.26" rx="10.69" ry="8.44" style="fill:#e6e6e6"></ellipse><path d="M412.48,303.21h0a84.72,84.72,0,0,0-27.24-.9l-7,.9,1.14-7.29a84.66,84.66,0,0,0,0-26.3l-1.14-7.29,3.14.51a85,85,0,0,0,25.13.31l6-.82-1.24,10.16a84.19,84.19,0,0,0,0,20.56Z" style="fill:#fafafa"></path><ellipse cx="395.37" cy="284.26" rx="10.69" ry="8.44" style="fill:#e6e6e6"></ellipse><path d="M431.73,303.21h0a84.72,84.72,0,0,0-27.24-.9l-7,.9,1.14-7.29a84.66,84.66,0,0,0,0-26.3l-1.14-7.29,3.14.51a85,85,0,0,0,25.13.31l6-.82-1.24,10.16a84.19,84.19,0,0,0,0,20.56Z" style="fill:#fafafa"></path><ellipse cx="414.62" cy="284.26" rx="10.69" ry="8.44" style="fill:#e6e6e6"></ellipse><rect x="282.02" y="353.29" width="43.03" height="19.28" style="fill:#fafafa"></rect><rect x="283.71" y="355.99" width="39.21" height="9.64" style="fill:#e6e6e6"></rect><rect x="317.58" y="353.29" width="43.03" height="19.28" style="fill:#fafafa"></rect><rect x="319.27" y="355.99" width="39.21" height="9.64" style="fill:#e6e6e6"></rect><rect x="353.14" y="353.29" width="43.03" height="19.28" style="fill:#fafafa"></rect><rect x="354.82" y="355.99" width="39.21" height="9.64" style="fill:#e6e6e6"></rect><rect x="388.69" y="353.29" width="43.03" height="19.28" style="fill:#fafafa"></rect><rect x="390.38" y="355.99" width="39.21" height="9.64" style="fill:#e6e6e6"></rect><rect x="287.44" y="334.44" width="43.03" height="19.28" style="fill:#fafafa"></rect><rect x="289.12" y="337.14" width="39.21" height="9.64" style="fill:#e6e6e6"></rect><rect x="318.91" y="334.44" width="43.03" height="19.28" style="fill:#fafafa"></rect><rect x="320.6" y="337.14" width="39.21" height="9.64" style="fill:#e6e6e6"></rect><rect x="350.38" y="334.44" width="43.03" height="19.28" style="fill:#fafafa"></rect><rect x="352.07" y="337.14" width="39.21" height="9.64" style="fill:#e6e6e6"></rect><rect x="381.85" y="334.44" width="43.03" height="19.28" style="fill:#fafafa"></rect><rect x="383.54" y="337.14" width="39.21" height="9.64" style="fill:#e6e6e6"></rect></g><g id="freepik--Shadow--inject-149"><ellipse id="freepik--path--inject-149" cx="250" cy="415.69" rx="193.89" ry="11.32" style="fill:#f5f5f5"></ellipse></g><g id="freepik--Cart--inject-149"><path d="M292.63,260a4.49,4.49,0,0,0-4.3,3.23H286.8A16.57,16.57,0,0,0,272,272.56l-5.14,10.7a.9.9,0,0,0,.42,1.21.92.92,0,0,0,.39.09.91.91,0,0,0,.82-.52l5.15-10.7A14.73,14.73,0,0,1,286.8,265h1.38a4.49,4.49,0,1,0,4.45-5Z" style="fill:#9A745F"></path><path d="M292.63,260a4.49,4.49,0,0,0-4.3,3.23H286.8A16.57,16.57,0,0,0,272,272.56l-5.14,10.7a.9.9,0,0,0,.42,1.21.92.92,0,0,0,.39.09.91.91,0,0,0,.82-.52l5.15-10.7A14.73,14.73,0,0,1,286.8,265h1.38a4.49,4.49,0,1,0,4.45-5Z" style="fill:#fff;opacity:0.30000000000000004"></path><path d="M156.92,380.16a.79.79,0,0,1-.3-.05.91.91,0,0,1-.56-1.15l5.29-15.25a.9.9,0,0,1,1.15-.55.91.91,0,0,1,.56,1.15l-5.29,15.24A.9.9,0,0,1,156.92,380.16Z" style="fill:#9A745F"></path><path d="M232.91,380.16H159.56a.91.91,0,0,1,0-1.81h72.08l-4.87-14a.91.91,0,0,1,.56-1.15.89.89,0,0,1,1.15.55L233.77,379a.92.92,0,0,1-.12.82A.9.9,0,0,1,232.91,380.16Z" style="fill:#9A745F"></path><path d="M228.8,364.92H137a.91.91,0,1,1,0-1.81H228.8a14.67,14.67,0,0,0,14.66-14.66V337.86a.91.91,0,1,1,1.81,0v10.59A16.49,16.49,0,0,1,228.8,364.92Z" style="fill:#9A745F"></path><path d="M244.37,337a.91.91,0,0,0-.91.91v10.59a14.67,14.67,0,0,1-14.66,14.66H137a.91.91,0,1,0,0,1.81h24l-4.87,14a.91.91,0,0,0,.56,1.15.79.79,0,0,0,.3.05.9.9,0,0,0,.85-.61l5.08-14.63H227l4.65,13.43H159.56a.91.91,0,0,0,0,1.81h73.35a.9.9,0,0,0,.74-.38.92.92,0,0,0,.12-.82l-4.87-14a16.47,16.47,0,0,0,16.37-16.46V337.86A.9.9,0,0,0,244.37,337Z" style="fill:#9A745F"></path><path d="M244.37,337a.91.91,0,0,0-.91.91v10.59a14.67,14.67,0,0,1-14.66,14.66H137a.91.91,0,1,0,0,1.81h24l-4.87,14a.91.91,0,0,0,.56,1.15.79.79,0,0,0,.3.05.9.9,0,0,0,.85-.61l5.08-14.63H227l4.65,13.43H159.56a.91.91,0,0,0,0,1.81h73.35a.9.9,0,0,0,.74-.38.92.92,0,0,0,.12-.82l-4.87-14a16.47,16.47,0,0,0,16.37-16.46V337.86A.9.9,0,0,0,244.37,337Z" style="fill:#fff;opacity:0.6000000000000001"></path><path d="M244.37,338.76H137.17a.9.9,0,0,1-.88-.69l-15.67-64a1,1,0,0,1,.17-.78.93.93,0,0,1,.71-.34H271.73a.93.93,0,0,1,.76.4.94.94,0,0,1,.07.86l-27.36,64A.89.89,0,0,1,244.37,338.76ZM137.88,337H243.77l26.59-62.15H122.66Z" style="fill:#9A745F"></path><path d="M258.34,306.11H128.54a.91.91,0,0,1,0-1.81h129.8a.91.91,0,0,1,0,1.81Z" style="fill:#9A745F"></path><path d="M137.17,338.76a.9.9,0,0,1-.88-.69l-15.67-64a.91.91,0,1,1,1.76-.43l15.67,64a.91.91,0,0,1-.67,1.1Z" style="fill:#9A745F"></path><path d="M164,338.76a.9.9,0,0,1-.9-.84l-4.65-64.2a.9.9,0,0,1,.84-1,.88.88,0,0,1,1,.83l4.65,64.2a.91.91,0,0,1-.84,1Z" style="fill:#9A745F"></path><path d="M190.77,338.76h-.09a.9.9,0,0,1-.81-1l6.37-64.44a.9.9,0,1,1,1.8.18L191.67,338A.91.91,0,0,1,190.77,338.76Z" style="fill:#9A745F"></path><path d="M217.57,338.76l-.24,0a.91.91,0,0,1-.64-1.11L234.08,273a.91.91,0,1,1,1.75.47l-17.39,64.67A.89.89,0,0,1,217.57,338.76Z" style="fill:#9A745F"></path><path d="M244.37,338.76a1,1,0,0,1-.37-.07.92.92,0,0,1-.46-1.2l28.4-64.9a.91.91,0,1,1,1.66.73l-28.4,64.9A.91.91,0,0,1,244.37,338.76Z" style="fill:#9A745F"></path><g style="opacity:0.7000000000000001"><path d="M244.37,338.76H137.17a.9.9,0,0,1-.88-.69l-15.67-64a1,1,0,0,1,.17-.78.93.93,0,0,1,.71-.34H271.73a.93.93,0,0,1,.76.4.94.94,0,0,1,.07.86l-27.36,64A.89.89,0,0,1,244.37,338.76ZM137.88,337H243.77l26.59-62.15H122.66Z" style="fill:#fafafa"></path><path d="M258.34,306.11H128.54a.91.91,0,0,1,0-1.81h129.8a.91.91,0,0,1,0,1.81Z" style="fill:#fafafa"></path><path d="M137.17,338.76a.9.9,0,0,1-.88-.69l-15.67-64a.91.91,0,1,1,1.76-.43l15.67,64a.91.91,0,0,1-.67,1.1Z" style="fill:#fafafa"></path><path d="M164,338.76a.9.9,0,0,1-.9-.84l-4.65-64.2a.9.9,0,0,1,.84-1,.88.88,0,0,1,1,.83l4.65,64.2a.91.91,0,0,1-.84,1Z" style="fill:#fafafa"></path><path d="M190.77,338.76h-.09a.9.9,0,0,1-.81-1l6.37-64.44a.9.9,0,1,1,1.8.18L191.67,338A.91.91,0,0,1,190.77,338.76Z" style="fill:#fafafa"></path><path d="M217.57,338.76l-.24,0a.91.91,0,0,1-.64-1.11L234.08,273a.91.91,0,1,1,1.75.47l-17.39,64.67A.89.89,0,0,1,217.57,338.76Z" style="fill:#fafafa"></path><path d="M244.37,338.76a1,1,0,0,1-.37-.07.92.92,0,0,1-.46-1.2l28.4-64.9a.91.91,0,1,1,1.66.73l-28.4,64.9A.91.91,0,0,1,244.37,338.76Z" style="fill:#fafafa"></path></g><circle cx="156.92" cy="379.26" r="9.39" transform="translate(-222.22 222.04) rotate(-45)" style="fill:#9A745F"></circle><g style="opacity:0.30000000000000004"><circle cx="156.92" cy="379.26" r="9.39" transform="translate(-222.22 222.04) rotate(-45)" style="fill:#fff"></circle></g><path d="M162.73,379.26a5.81,5.81,0,1,1-5.81-5.81A5.81,5.81,0,0,1,162.73,379.26Z" style="opacity:0.2"></path><circle cx="156.92" cy="379.53" r="2.39" style="fill:#263238"></circle><circle cx="230.27" cy="379.26" r="9.39" transform="translate(-191.75 516.23) rotate(-76.72)" style="fill:#9A745F"></circle><g style="opacity:0.7000000000000001"><circle cx="230.14" cy="379.26" r="9.39" transform="translate(-200.77 273.82) rotate(-45)" style="fill:#fff;opacity:0.30000000000000004"></circle></g><path d="M236.08,379.26a5.81,5.81,0,1,1-5.81-5.81A5.81,5.81,0,0,1,236.08,379.26Z" style="opacity:0.2"></path><path d="M232.66,379.53a2.39,2.39,0,1,1-2.39-2.39A2.4,2.4,0,0,1,232.66,379.53Z" style="fill:#263238"></path></g><g id="freepik--Lines--inject-149"><path d="M300.91,375.84h-7.42v-.75c12.4,0,25.1,0,37.72-.2v.75C321.1,375.77,310.93,375.84,300.91,375.84Z" style="fill:#9A745F"></path><path d="M287.38,375.8c-5.33,0-10.78-.09-16.19-.17v-.75c5.41.08,10.86.13,16.19.17Z" style="fill:#9A745F"></path><rect x="259.69" y="374.88" width="6.06" height="0.75" style="fill:#9A745F"></rect><rect x="187.34" y="204.79" width="38.04" height="0.75" style="fill:#9A745F"></rect><rect x="229.49" y="204.79" width="3.1" height="0.75" style="fill:#9A745F"></rect><rect x="278.27" y="148.47" width="17.29" height="0.75" style="fill:#9A745F"></rect><rect x="264.12" y="148.47" width="9.74" height="0.75" style="fill:#9A745F"></rect></g></svg>